<mxfile host="app.diagrams.net" agent="Mozilla/5.0 (Windows NT 10.0; Win64; x64; rv:141.0) Gecko/20100101 Firefox/141.0" version="28.1.0">
  <diagram name="Sayfa -1" id="Se-Th1L1r2ViK5l1ojqv">
    <mxGraphModel dx="1375" dy="787" grid="1" gridSize="10" guides="1" tooltips="1" connect="1" arrows="1" fold="1" page="1" pageScale="1" pageWidth="827" pageHeight="1169" background="#FFFFFF" math="0" shadow="1">
      <root>
        <mxCell id="0" />
        <mxCell id="1" parent="0" />
        <mxCell id="Xx9EbbV-DhoLECwuih-q-16" value=":Config Files" style="shape=umlLifeline;perimeter=lifelinePerimeter;whiteSpace=wrap;html=1;container=1;dropTarget=0;collapsible=0;recursiveResize=0;outlineConnect=0;portConstraint=eastwest;newEdgeStyle={&quot;curved&quot;:0,&quot;rounded&quot;:0};" vertex="1" parent="1">
          <mxGeometry x="820" y="160" width="110" height="290" as="geometry" />
        </mxCell>
        <mxCell id="Xx9EbbV-DhoLECwuih-q-33" value="" style="html=1;points=[[0,0,0,0,5],[0,1,0,0,-5],[1,0,0,0,5],[1,1,0,0,-5]];perimeter=orthogonalPerimeter;outlineConnect=0;targetShapes=umlLifeline;portConstraint=eastwest;newEdgeStyle={&quot;curved&quot;:0,&quot;rounded&quot;:0};" vertex="1" parent="1">
          <mxGeometry x="870" y="410" width="10" height="40" as="geometry" />
        </mxCell>
        <mxCell id="Xx9EbbV-DhoLECwuih-q-27" value="process_all_microservices()" style="html=1;verticalAlign=bottom;startArrow=oval;startFill=1;endArrow=block;startSize=8;curved=0;rounded=0;" edge="1" parent="1">
          <mxGeometry width="60" relative="1" as="geometry">
            <mxPoint x="414" y="330" as="sourcePoint" />
            <mxPoint x="610" y="330" as="targetPoint" />
          </mxGeometry>
        </mxCell>
        <mxCell id="Xx9EbbV-DhoLECwuih-q-1" value="Actor" style="shape=umlActor;verticalLabelPosition=bottom;verticalAlign=top;html=1;outlineConnect=0;" vertex="1" parent="1">
          <mxGeometry x="85" y="90" width="20" height="40" as="geometry" />
        </mxCell>
        <mxCell id="Xx9EbbV-DhoLECwuih-q-3" value="" style="endArrow=none;dashed=1;html=1;rounded=0;" edge="1" parent="1">
          <mxGeometry width="50" height="50" relative="1" as="geometry">
            <mxPoint x="94.5" y="170" as="sourcePoint" />
            <mxPoint x="94.5" y="140" as="targetPoint" />
          </mxGeometry>
        </mxCell>
        <mxCell id="Xx9EbbV-DhoLECwuih-q-11" value=":Actor" style="shape=umlLifeline;perimeter=lifelinePerimeter;whiteSpace=wrap;html=1;container=1;dropTarget=0;collapsible=0;recursiveResize=0;outlineConnect=0;portConstraint=eastwest;newEdgeStyle={&quot;curved&quot;:0,&quot;rounded&quot;:0};" vertex="1" parent="1">
          <mxGeometry x="40" y="160" width="110" height="290" as="geometry" />
        </mxCell>
        <mxCell id="Xx9EbbV-DhoLECwuih-q-5" value="" style="html=1;points=[[0,0,0,0,5],[0,1,0,0,-5],[1,0,0,0,5],[1,1,0,0,-5]];perimeter=orthogonalPerimeter;outlineConnect=0;targetShapes=umlLifeline;portConstraint=eastwest;newEdgeStyle={&quot;curved&quot;:0,&quot;rounded&quot;:0};" vertex="1" parent="1">
          <mxGeometry x="90" y="210" width="10" height="900" as="geometry" />
        </mxCell>
        <mxCell id="Xx9EbbV-DhoLECwuih-q-12" value=":Front End (React)" style="shape=umlLifeline;perimeter=lifelinePerimeter;whiteSpace=wrap;html=1;container=1;dropTarget=0;collapsible=0;recursiveResize=0;outlineConnect=0;portConstraint=eastwest;newEdgeStyle={&quot;curved&quot;:0,&quot;rounded&quot;:0};" vertex="1" parent="1">
          <mxGeometry x="200" y="160" width="110" height="950" as="geometry" />
        </mxCell>
        <mxCell id="Xx9EbbV-DhoLECwuih-q-25" value="" style="html=1;points=[[0,0,0,0,5],[0,1,0,0,-5],[1,0,0,0,5],[1,1,0,0,-5]];perimeter=orthogonalPerimeter;outlineConnect=0;targetShapes=umlLifeline;portConstraint=eastwest;newEdgeStyle={&quot;curved&quot;:0,&quot;rounded&quot;:0};" vertex="1" parent="Xx9EbbV-DhoLECwuih-q-12">
          <mxGeometry x="50" y="80" width="10" height="870" as="geometry" />
        </mxCell>
        <mxCell id="Xx9EbbV-DhoLECwuih-q-13" value="Enter directory" style="html=1;verticalAlign=bottom;startArrow=oval;startFill=1;endArrow=block;startSize=8;curved=0;rounded=0;" edge="1" parent="1">
          <mxGeometry width="60" relative="1" as="geometry">
            <mxPoint x="100" y="240" as="sourcePoint" />
            <mxPoint x="260" y="240" as="targetPoint" />
          </mxGeometry>
        </mxCell>
        <mxCell id="Xx9EbbV-DhoLECwuih-q-14" value=":Back End (Flask)" style="shape=umlLifeline;perimeter=lifelinePerimeter;whiteSpace=wrap;html=1;container=1;dropTarget=0;collapsible=0;recursiveResize=0;outlineConnect=0;portConstraint=eastwest;newEdgeStyle={&quot;curved&quot;:0,&quot;rounded&quot;:0};" vertex="1" parent="1">
          <mxGeometry x="359" y="160" width="110" height="870" as="geometry" />
        </mxCell>
        <mxCell id="Xx9EbbV-DhoLECwuih-q-26" value="" style="html=1;points=[[0,0,0,0,5],[0,1,0,0,-5],[1,0,0,0,5],[1,1,0,0,-5]];perimeter=orthogonalPerimeter;outlineConnect=0;targetShapes=umlLifeline;portConstraint=eastwest;newEdgeStyle={&quot;curved&quot;:0,&quot;rounded&quot;:0};" vertex="1" parent="Xx9EbbV-DhoLECwuih-q-14">
          <mxGeometry x="50" y="110" width="10" height="760" as="geometry" />
        </mxCell>
        <mxCell id="Xx9EbbV-DhoLECwuih-q-15" value=":YAMLParser" style="shape=umlLifeline;perimeter=lifelinePerimeter;whiteSpace=wrap;html=1;container=1;dropTarget=0;collapsible=0;recursiveResize=0;outlineConnect=0;portConstraint=eastwest;newEdgeStyle={&quot;curved&quot;:0,&quot;rounded&quot;:0};" vertex="1" parent="1">
          <mxGeometry x="560" y="160" width="110" height="860" as="geometry" />
        </mxCell>
        <mxCell id="Xx9EbbV-DhoLECwuih-q-22" value="" style="html=1;points=[[0,0,0,0,5],[0,1,0,0,-5],[1,0,0,0,5],[1,1,0,0,-5]];perimeter=orthogonalPerimeter;outlineConnect=0;targetShapes=umlLifeline;portConstraint=eastwest;newEdgeStyle={&quot;curved&quot;:0,&quot;rounded&quot;:0};" vertex="1" parent="Xx9EbbV-DhoLECwuih-q-15">
          <mxGeometry x="50" y="130" width="10" height="730" as="geometry" />
        </mxCell>
        <mxCell id="Xx9EbbV-DhoLECwuih-q-17" value=":Doc Files" style="shape=umlLifeline;perimeter=lifelinePerimeter;whiteSpace=wrap;html=1;container=1;dropTarget=0;collapsible=0;recursiveResize=0;outlineConnect=0;portConstraint=eastwest;newEdgeStyle={&quot;curved&quot;:0,&quot;rounded&quot;:0};" vertex="1" parent="1">
          <mxGeometry x="980" y="160" width="110" height="720" as="geometry" />
        </mxCell>
        <mxCell id="Xx9EbbV-DhoLECwuih-q-42" value="" style="html=1;points=[[0,0,0,0,5],[0,1,0,0,-5],[1,0,0,0,5],[1,1,0,0,-5]];perimeter=orthogonalPerimeter;outlineConnect=0;targetShapes=umlLifeline;portConstraint=eastwest;newEdgeStyle={&quot;curved&quot;:0,&quot;rounded&quot;:0};" vertex="1" parent="Xx9EbbV-DhoLECwuih-q-17">
          <mxGeometry x="50" y="580" width="10" height="60" as="geometry" />
        </mxCell>
        <mxCell id="Xx9EbbV-DhoLECwuih-q-19" value="HTTP Req: Post /parse&amp;nbsp;" style="html=1;verticalAlign=bottom;startArrow=oval;startFill=1;endArrow=block;startSize=8;curved=0;rounded=0;" edge="1" parent="1" target="Xx9EbbV-DhoLECwuih-q-14">
          <mxGeometry width="60" relative="1" as="geometry">
            <mxPoint x="260" y="270" as="sourcePoint" />
            <mxPoint x="320" y="270" as="targetPoint" />
          </mxGeometry>
        </mxCell>
        <mxCell id="Xx9EbbV-DhoLECwuih-q-23" value="&lt;font style=&quot;font-size: 9px;&quot;&gt;YAMLParser: new YAMLParser(base_dir)&lt;/font&gt;" style="html=1;verticalAlign=bottom;endArrow=block;curved=0;rounded=0;entryX=0;entryY=0;entryDx=0;entryDy=5;" edge="1" parent="1">
          <mxGeometry relative="1" as="geometry">
            <mxPoint x="414" y="290" as="sourcePoint" />
            <mxPoint x="610.5" y="290" as="targetPoint" />
          </mxGeometry>
        </mxCell>
        <mxCell id="Xx9EbbV-DhoLECwuih-q-29" value="process_subscription_configs()" style="html=1;align=left;spacingLeft=2;endArrow=block;rounded=0;edgeStyle=orthogonalEdgeStyle;curved=0;rounded=0;" edge="1" parent="1">
          <mxGeometry relative="1" as="geometry">
            <mxPoint x="614.5" y="340" as="sourcePoint" />
            <Array as="points">
              <mxPoint x="680" y="340" />
              <mxPoint x="680" y="380" />
            </Array>
            <mxPoint x="614.5" y="380" as="targetPoint" />
          </mxGeometry>
        </mxCell>
        <mxCell id="Xx9EbbV-DhoLECwuih-q-31" value="os.walk(config_directory)&amp;nbsp;" style="html=1;verticalAlign=bottom;startArrow=oval;startFill=1;endArrow=block;startSize=8;curved=0;rounded=0;" edge="1" parent="1" target="Xx9EbbV-DhoLECwuih-q-16">
          <mxGeometry width="60" relative="1" as="geometry">
            <mxPoint x="620" y="410" as="sourcePoint" />
            <mxPoint x="680" y="410" as="targetPoint" />
          </mxGeometry>
        </mxCell>
        <mxCell id="Xx9EbbV-DhoLECwuih-q-32" value="loop" style="shape=umlFrame;whiteSpace=wrap;html=1;pointerEvents=0;" vertex="1" parent="1">
          <mxGeometry x="500" y="430" width="460" height="190" as="geometry" />
        </mxCell>
        <mxCell id="Xx9EbbV-DhoLECwuih-q-34" value="&lt;div&gt;for each&amp;nbsp;yaml file&lt;/div&gt;" style="text;html=1;align=center;verticalAlign=middle;resizable=0;points=[];autosize=1;strokeColor=none;fillColor=none;" vertex="1" parent="1">
          <mxGeometry x="500" y="470" width="110" height="30" as="geometry" />
        </mxCell>
        <mxCell id="Xx9EbbV-DhoLECwuih-q-35" value="read file content" style="html=1;verticalAlign=bottom;startArrow=oval;startFill=1;endArrow=block;startSize=8;curved=0;rounded=0;" edge="1" parent="1" target="Xx9EbbV-DhoLECwuih-q-33">
          <mxGeometry width="60" relative="1" as="geometry">
            <mxPoint x="620" y="449" as="sourcePoint" />
            <mxPoint x="680" y="449" as="targetPoint" />
          </mxGeometry>
        </mxCell>
        <mxCell id="Xx9EbbV-DhoLECwuih-q-36" value="&amp;nbsp;_derive_service_name(filepath)" style="html=1;align=left;spacingLeft=2;endArrow=block;rounded=0;edgeStyle=orthogonalEdgeStyle;curved=0;rounded=0;" edge="1" parent="1">
          <mxGeometry x="-0.117" relative="1" as="geometry">
            <mxPoint x="620" y="470" as="sourcePoint" />
            <Array as="points">
              <mxPoint x="686" y="470" />
              <mxPoint x="686" y="500" />
              <mxPoint x="620" y="500" />
            </Array>
            <mxPoint x="620" y="500" as="targetPoint" />
            <mxPoint y="1" as="offset" />
          </mxGeometry>
        </mxCell>
        <mxCell id="Xx9EbbV-DhoLECwuih-q-37" value="_extract_consumed_topics(lines)" style="html=1;align=left;spacingLeft=2;endArrow=block;rounded=0;edgeStyle=orthogonalEdgeStyle;curved=0;rounded=0;" edge="1" parent="1">
          <mxGeometry x="-0.117" relative="1" as="geometry">
            <mxPoint x="620" y="520" as="sourcePoint" />
            <Array as="points">
              <mxPoint x="686" y="520" />
              <mxPoint x="686" y="550" />
              <mxPoint x="620" y="550" />
            </Array>
            <mxPoint x="620" y="550" as="targetPoint" />
            <mxPoint y="1" as="offset" />
          </mxGeometry>
        </mxCell>
        <mxCell id="Xx9EbbV-DhoLECwuih-q-38" value="_build_topic_map(lines)" style="html=1;align=left;spacingLeft=2;endArrow=block;rounded=0;edgeStyle=orthogonalEdgeStyle;curved=0;rounded=0;" edge="1" parent="1">
          <mxGeometry x="-0.117" relative="1" as="geometry">
            <mxPoint x="620" y="570" as="sourcePoint" />
            <Array as="points">
              <mxPoint x="686" y="570" />
              <mxPoint x="686" y="600" />
              <mxPoint x="620" y="600" />
            </Array>
            <mxPoint x="620" y="600" as="targetPoint" />
            <mxPoint y="1" as="offset" />
          </mxGeometry>
        </mxCell>
        <mxCell id="Xx9EbbV-DhoLECwuih-q-39" value="" style="endArrow=none;dashed=1;html=1;rounded=0;" edge="1" parent="1">
          <mxGeometry width="50" height="50" relative="1" as="geometry">
            <mxPoint x="875" y="620" as="sourcePoint" />
            <mxPoint x="874.5" y="450" as="targetPoint" />
          </mxGeometry>
        </mxCell>
        <mxCell id="Xx9EbbV-DhoLECwuih-q-40" value="process_producer_docs()" style="html=1;align=left;spacingLeft=2;endArrow=block;rounded=0;edgeStyle=orthogonalEdgeStyle;curved=0;rounded=0;" edge="1" parent="1">
          <mxGeometry relative="1" as="geometry">
            <mxPoint x="620" y="660" as="sourcePoint" />
            <Array as="points">
              <mxPoint x="685.5" y="660" />
              <mxPoint x="685.5" y="700" />
            </Array>
            <mxPoint x="620" y="700" as="targetPoint" />
          </mxGeometry>
        </mxCell>
        <mxCell id="Xx9EbbV-DhoLECwuih-q-41" value="os.walk(config_directory)&amp;nbsp;" style="html=1;verticalAlign=bottom;startArrow=oval;startFill=1;endArrow=block;startSize=8;curved=0;rounded=0;" edge="1" parent="1" target="Xx9EbbV-DhoLECwuih-q-17">
          <mxGeometry width="60" relative="1" as="geometry">
            <mxPoint x="615" y="740" as="sourcePoint" />
            <mxPoint x="870" y="740" as="targetPoint" />
          </mxGeometry>
        </mxCell>
        <mxCell id="Xx9EbbV-DhoLECwuih-q-43" value="loop" style="shape=umlFrame;whiteSpace=wrap;html=1;pointerEvents=0;" vertex="1" parent="1">
          <mxGeometry x="500" y="780" width="560" height="140" as="geometry" />
        </mxCell>
        <mxCell id="Xx9EbbV-DhoLECwuih-q-44" value="&lt;div&gt;for each&amp;nbsp;yaml file&lt;/div&gt;" style="text;html=1;align=center;verticalAlign=middle;resizable=0;points=[];autosize=1;strokeColor=none;fillColor=none;" vertex="1" parent="1">
          <mxGeometry x="500" y="820" width="110" height="30" as="geometry" />
        </mxCell>
        <mxCell id="Xx9EbbV-DhoLECwuih-q-45" value="read file content" style="html=1;verticalAlign=bottom;startArrow=oval;startFill=1;endArrow=block;startSize=8;curved=0;rounded=0;" edge="1" parent="1" target="Xx9EbbV-DhoLECwuih-q-17">
          <mxGeometry width="60" relative="1" as="geometry">
            <mxPoint x="620" y="799" as="sourcePoint" />
            <mxPoint x="870" y="799" as="targetPoint" />
          </mxGeometry>
        </mxCell>
        <mxCell id="Xx9EbbV-DhoLECwuih-q-46" value="_find_matching_microservice()" style="html=1;align=left;spacingLeft=2;endArrow=block;rounded=0;edgeStyle=orthogonalEdgeStyle;curved=0;rounded=0;" edge="1" parent="1">
          <mxGeometry x="-0.117" relative="1" as="geometry">
            <mxPoint x="620" y="820" as="sourcePoint" />
            <Array as="points">
              <mxPoint x="686" y="820" />
              <mxPoint x="686" y="850" />
              <mxPoint x="620" y="850" />
            </Array>
            <mxPoint x="620" y="850" as="targetPoint" />
            <mxPoint y="1" as="offset" />
          </mxGeometry>
        </mxCell>
        <mxCell id="Xx9EbbV-DhoLECwuih-q-47" value="process_producer_doc()" style="html=1;align=left;spacingLeft=2;endArrow=block;rounded=0;edgeStyle=orthogonalEdgeStyle;curved=0;rounded=0;" edge="1" parent="1">
          <mxGeometry x="-0.117" relative="1" as="geometry">
            <mxPoint x="620" y="870" as="sourcePoint" />
            <Array as="points">
              <mxPoint x="686" y="870" />
              <mxPoint x="686" y="900" />
              <mxPoint x="620" y="900" />
            </Array>
            <mxPoint x="620" y="900" as="targetPoint" />
            <mxPoint y="1" as="offset" />
          </mxGeometry>
        </mxCell>
        <mxCell id="Xx9EbbV-DhoLECwuih-q-50" value="build_dependency_graph()" style="html=1;align=left;spacingLeft=2;endArrow=block;rounded=0;edgeStyle=orthogonalEdgeStyle;curved=0;rounded=0;" edge="1" parent="1">
          <mxGeometry x="0.0058" relative="1" as="geometry">
            <mxPoint x="620" y="940" as="sourcePoint" />
            <Array as="points">
              <mxPoint x="685.5" y="940" />
              <mxPoint x="685.5" y="980" />
            </Array>
            <mxPoint x="620" y="980" as="targetPoint" />
            <mxPoint as="offset" />
          </mxGeometry>
        </mxCell>
        <mxCell id="Xx9EbbV-DhoLECwuih-q-52" value="&lt;font style=&quot;font-size: 9px;&quot;&gt;return {dependencies, microservices, total_count}&lt;/font&gt;" style="html=1;verticalAlign=bottom;startArrow=oval;startFill=1;endArrow=block;startSize=8;curved=0;rounded=0;" edge="1" parent="1" target="Xx9EbbV-DhoLECwuih-q-14">
          <mxGeometry width="60" relative="1" as="geometry">
            <mxPoint x="610" y="1000" as="sourcePoint" />
            <mxPoint x="545.5" y="1000" as="targetPoint" />
          </mxGeometry>
        </mxCell>
        <mxCell id="Xx9EbbV-DhoLECwuih-q-53" value="JSON Response" style="html=1;verticalAlign=bottom;startArrow=oval;startFill=1;endArrow=block;startSize=8;curved=0;rounded=0;" edge="1" parent="1">
          <mxGeometry width="60" relative="1" as="geometry">
            <mxPoint x="414" y="1020" as="sourcePoint" />
            <mxPoint x="260" y="1020" as="targetPoint" />
          </mxGeometry>
        </mxCell>
        <mxCell id="Xx9EbbV-DhoLECwuih-q-54" value="setState(parsedData)" style="html=1;align=left;spacingLeft=2;endArrow=block;rounded=0;edgeStyle=orthogonalEdgeStyle;curved=0;rounded=0;" edge="1" parent="1">
          <mxGeometry x="0.0058" relative="1" as="geometry">
            <mxPoint x="260" y="1050" as="sourcePoint" />
            <Array as="points">
              <mxPoint x="325.5" y="1050" />
              <mxPoint x="325.5" y="1090" />
            </Array>
            <mxPoint x="260" y="1090" as="targetPoint" />
            <mxPoint as="offset" />
          </mxGeometry>
        </mxCell>
        <mxCell id="Xx9EbbV-DhoLECwuih-q-55" value="Display Graph" style="html=1;verticalAlign=bottom;startArrow=oval;startFill=1;endArrow=block;startSize=8;curved=0;rounded=0;" edge="1" parent="1" source="Xx9EbbV-DhoLECwuih-q-25">
          <mxGeometry width="60" relative="1" as="geometry">
            <mxPoint x="244" y="1099" as="sourcePoint" />
            <mxPoint x="100" y="1100" as="targetPoint" />
          </mxGeometry>
        </mxCell>
      </root>
    </mxGraphModel>
  </diagram>
</mxfile>
